# Blender 5.0.1
# www.blender.org
mtllib BLUH.mtl
o Cube.001
v -1.000000 -0.310869 1.000000
v 0.704140 0.249402 1.000000
v -1.000000 0.310869 1.000000
v -1.000000 -0.310869 -1.000000
v 0.704140 0.249402 -1.000000
v -1.000000 0.310869 -1.000000
v 1.000000 -0.310869 1.000000
v 0.551400 0.249402 1.000000
v 1.000000 0.310869 1.000000
v 1.000000 -0.310869 -1.000000
v 0.551400 0.249402 -1.000000
v 1.000000 0.310869 -1.000000
v -0.704140 0.249402 1.000000
v -0.704140 0.249402 -1.000000
v -0.551400 0.249402 1.000000
v -0.551400 0.249402 -1.000000
v -0.704140 0.310869 -1.000000
v 0.551400 0.310869 -1.000000
v -0.551400 0.310869 -1.000000
v 0.704140 0.310869 -1.000000
v -0.704140 0.310869 1.000000
v 0.551400 0.310869 1.000000
v -0.551400 0.310869 1.000000
v 0.704140 0.310869 1.000000
v -1.000000 0.249402 0.714291
v -1.000000 0.249402 0.561551
v -1.000000 0.310869 0.714291
v -1.000000 0.310869 -0.541249
v -1.000000 0.249402 -0.541249
v -1.000000 0.310869 0.561551
v -1.000000 0.249402 -0.693989
v -1.000000 0.310869 -0.693989
v 1.000000 0.249402 0.714291
v 1.000000 0.310869 0.714291
v 1.000000 0.249402 0.561551
v 1.000000 0.310869 0.561551
v 1.000000 0.249402 -0.541249
v 1.000000 0.249402 -0.693989
v 1.000000 0.310869 -0.693989
v 1.000000 0.310869 -0.541249
v -0.704140 0.310869 0.714291
v -0.704140 0.310869 0.561551
v -0.704140 0.310869 -0.541249
v -0.704140 0.310869 -0.693989
v -0.551400 0.310869 0.714291
v -0.551400 0.310869 0.561551
v -0.551400 0.310869 -0.541249
v -0.551400 0.310869 -0.693989
v 0.551400 0.310869 -0.541249
v 0.551400 0.310869 -0.693989
v 0.551400 0.310869 0.714291
v 0.551400 0.310869 0.561551
v 0.704140 0.310869 0.714291
v 0.704140 0.310869 0.561551
v 0.704140 0.310869 -0.541249
v 0.704140 0.310869 -0.693989
v 0.704140 0.249402 0.561551
v 0.704140 0.249402 0.714291
v 0.704140 0.249402 -0.693989
v 0.704140 0.249402 -0.541249
v 0.551400 0.249402 0.561551
v 0.551400 0.249402 0.714291
v 0.551400 0.249402 -0.693989
v 0.551400 0.249402 -0.655406
v 0.551400 0.249402 -0.541249
v -0.704140 0.249402 0.714291
v -0.704140 0.249402 -0.693989
v -0.704140 0.249402 -0.541249
v -0.704140 0.249402 0.561551
v -0.551400 0.249402 0.610617
v -0.551400 0.249402 0.714291
v -0.551400 0.249402 -0.693989
v -0.551400 0.249402 -0.541249
v -0.551400 0.249402 0.561551
v 0.574770 0.249402 -0.693989
v -0.584884 0.249402 0.561551
v 0.577599 0.249402 -0.656952
v -0.581272 0.249402 0.608854
vn -1.0000 -0.0000 -0.0000
vn -0.0000 -0.0000 -1.0000
vn 1.0000 -0.0000 -0.0000
vn -0.0000 -0.0000 1.0000
vn -0.0000 -1.0000 -0.0000
vn -0.0000 1.0000 -0.0000
vt 0.625000 0.250000
vt 0.375000 0.250000
vt 0.375000 0.000000
vt 0.625000 0.000000
vt 0.625000 0.035714
vt 0.600284 0.035714
vt 0.600284 0.054806
vt 0.625000 0.054806
vt 0.625000 0.192656
vt 0.600284 0.192656
vt 0.600284 0.211749
vt 0.625000 0.211749
vt 0.625000 0.306075
vt 0.625000 0.443925
vt 0.600284 0.443925
vt 0.600284 0.463018
vt 0.625000 0.463018
vt 0.625000 0.500000
vt 0.375000 0.500000
vt 0.625000 0.286982
vt 0.600284 0.286982
vt 0.600284 0.306075
vt 0.625000 0.750000
vt 0.375000 0.750000
vt 0.625000 0.538251
vt 0.600284 0.538251
vt 0.600284 0.557344
vt 0.625000 0.557344
vt 0.625000 0.695194
vt 0.600284 0.695194
vt 0.600284 0.714286
vt 0.625000 0.714286
vt 0.600284 0.963018
vt 0.625000 0.963018
vt 0.625000 1.000000
vt 0.375000 1.000000
vt 0.625000 0.786982
vt 0.600284 0.786982
vt 0.600284 0.806075
vt 0.625000 0.806075
vt 0.625000 0.943925
vt 0.600284 0.943925
vt 0.125000 0.500000
vt 0.125000 0.750000
vt 0.875000 0.714286
vt 0.875000 0.750000
vt 0.838018 0.750000
vt 0.838017 0.714286
vt 0.838017 0.695194
vt 0.838018 0.557344
vt 0.875000 0.557344
vt 0.875000 0.695194
vt 0.838018 0.538251
vt 0.838018 0.500000
vt 0.875000 0.500000
vt 0.875000 0.538251
vt 0.818925 0.714286
vt 0.818925 0.750000
vt 0.681075 0.750000
vt 0.681075 0.714286
vt 0.681075 0.538251
vt 0.681075 0.500000
vt 0.818925 0.500000
vt 0.818925 0.538251
vt 0.681075 0.695194
vt 0.681075 0.557344
vt 0.818925 0.557344
vt 0.818925 0.695194
vt 0.661983 0.557344
vt 0.661982 0.695194
vt 0.661982 0.500000
vt 0.661983 0.538251
vt 0.661982 0.714286
vt 0.661982 0.750000
vt 0.484100 0.000000
vt 0.484100 0.035714
vt 0.375000 0.035714
vt 0.375000 0.192656
vt 0.375000 0.054806
vt 0.484100 0.054806
vt 0.484100 0.192656
vt 0.484100 0.250000
vt 0.375000 0.211749
vt 0.484100 0.211749
vt 0.484100 0.500000
vt 0.484100 0.538251
vt 0.375000 0.538251
vt 0.484100 0.750000
vt 0.375000 0.714286
vt 0.484100 0.714286
vt 0.484100 0.557344
vt 0.484100 0.695194
vt 0.375000 0.695194
vt 0.375000 0.557344
vt 0.125000 0.714286
vt 0.125000 0.695194
vt 0.125000 0.557344
vt 0.125000 0.538251
vt 0.336749 0.538251
vt 0.375000 0.543074
vt 0.332119 0.542881
vt 0.484100 0.054806
vt 0.375000 0.054806
vt 0.484100 0.000000
vt 0.375000 0.035714
vt 0.484100 0.035714
vt 0.375000 0.714286
vt 0.484100 0.500000
vt 0.375000 0.695194
vt 0.484100 0.557344
vt 0.375000 0.557344
vt 0.375000 0.538251
vt 0.484100 0.538251
vt 0.320194 0.695194
vt 0.375000 0.701327
vt 0.326107 0.701107
vt 0.375000 0.580310
vt 0.375000 0.686848
vt 0.188152 0.686848
vt 0.125000 0.686848
vt 0.125000 0.580310
vt 0.375000 0.701604
vt 0.375000 0.730186
vt 0.125000 0.730186
vt 0.125000 0.701604
vt 0.125000 0.565554
vt 0.125000 0.536972
vt 0.375000 0.536972
vt 0.375000 0.565554
vt 0.375000 0.565554
vt 0.125000 0.730186
vt 0.375000 0.730186
vt 0.294690 0.580310
s 0
f 6/1/1 4/2/1 1/3/1 3/4/1 27/5/1 25/6/1 26/7/1 30/8/1 28/9/1 29/10/1 31/11/1 32/12/1
f 19/13/2 18/14/2 11/15/2 5/16/2 20/17/2 12/18/2 10/19/2 4/2/2 6/1/2 17/20/2 14/21/2 16/22/2
f 9/23/3 7/24/3 10/19/3 12/18/3 39/25/3 38/26/3 37/27/3 40/28/3 36/29/3 35/30/3 33/31/3 34/32/3
f 13/33/4 21/34/4 3/35/4 1/36/4 7/24/4 9/23/4 24/37/4 2/38/4 8/39/4 22/40/4 23/41/4 15/42/4
f 4/43/5 10/19/5 7/24/5 1/44/5
f 27/45/6 3/46/6 21/47/6 41/48/6
f 42/49/6 43/50/6 28/51/6 30/52/6
f 44/53/6 17/54/6 6/55/6 32/56/6
f 45/57/6 23/58/6 22/59/6 51/60/6
f 50/61/6 18/62/6 19/63/6 48/64/6
f 52/65/6 49/66/6 47/67/6 46/68/6
f 36/29/6 40/28/6 55/69/6 54/70/6
f 39/25/6 12/18/6 20/71/6 56/72/6
f 53/73/6 24/74/6 9/23/6 34/32/6
f 2/3/1 24/75/1 53/76/1 58/77/1
f 60/78/1 57/79/1 54/80/1 55/81/1
f 20/82/1 5/2/1 59/83/1 56/84/1
f 11/19/3 18/85/3 50/86/3 63/87/3
f 22/88/3 8/24/3 62/89/3 51/90/3
f 49/91/3 52/92/3 61/93/3 65/94/3
f 62/89/6 8/24/6 2/44/6 58/95/6
f 57/96/6 60/97/6 65/94/6 61/93/6
f 59/98/6 5/43/6 11/19/6 63/87/6 75/99/6
f 63/87/6 64/100/6 77/101/6 75/99/6
f 64/100/6 65/94/6 60/97/6 59/98/6 75/99/6 77/101/6
f 14/2/3 17/82/3 44/84/3 67/83/3 68/78/3 43/81/3 42/102/3 69/103/3
f 21/104/3 13/3/3 66/105/3 41/106/3
f 15/24/1 23/88/1 45/90/1 71/107/1
f 19/108/1 16/19/1 74/109/1 46/92/1 47/110/1 73/111/1 72/112/1 48/113/1
f 66/95/6 13/44/6 15/24/6 71/107/6
f 74/109/6 16/19/6 14/43/6 69/96/6 76/114/6
f 76/114/6 69/96/6 66/95/6 71/107/6 70/115/6 78/116/6
f 70/115/6 74/109/6 76/114/6 78/116/6
f 44/75/4 32/75/4 31/2/4 67/2/4
f 59/2/4 38/2/4 39/75/4 56/75/4
f 50/75/4 48/75/4 72/2/4 63/2/4
f 40/85/2 37/24/2 60/24/2 55/85/2
f 68/24/2 29/24/2 28/85/2 43/85/2
f 47/85/2 49/85/2 65/24/2 73/24/2
f 73/117/6 65/118/6 64/119/6 63/120/6 72/121/6
f 60/122/6 37/123/6 38/124/6 59/125/6
f 67/126/6 31/127/6 29/128/6 68/129/6
f 51/104/2 62/3/2 58/3/2 53/104/2 34/104/2 33/3/2 71/3/2 45/104/2
f 66/3/2 25/3/2 27/104/2 41/104/2
f 52/108/4 46/108/4 74/19/4 35/19/4 36/108/4 54/108/4 57/19/4 61/19/4
f 30/108/4 26/19/4 69/19/4 42/108/4
f 26/128/6 25/127/6 66/126/6 69/130/6
f 33/131/6 35/132/6 74/117/6 70/133/6 71/121/6
