# Blender 4.5.3 LTS
# www.blender.org
mtllib whitefence.mtl
o Cube.006
v 68.323624 0.000000 1.178017
v 68.323624 90.945663 1.178017
v 68.323624 0.000000 -1.178017
v 68.323624 90.945663 -1.178017
v 75.676376 0.000000 1.178017
v 75.676376 90.945663 1.178017
v 75.676376 0.000000 -1.178017
v 75.676376 90.945663 -1.178017
v 69.722649 90.294830 0.878607
v 71.722649 90.294830 0.878607
v 72.110497 96.793243 1.178017
v 72.167458 96.793243 -1.178017
v 44.323624 0.000000 1.178017
v 44.323624 90.945663 1.178017
v 44.323624 0.000000 -1.178017
v 44.323624 90.945663 -1.178017
v 51.676376 0.000000 1.178017
v 51.676376 90.945663 1.178017
v 51.676376 0.000000 -1.178017
v 51.676376 90.945663 -1.178017
v 45.722649 90.294830 0.878607
v 47.722649 90.294830 0.878607
v 48.110493 96.793243 1.178017
v 48.167454 96.793243 -1.178017
v 8.323624 0.000000 1.178017
v 8.323624 90.945663 1.178017
v 8.323624 0.000000 -1.178017
v 8.323624 90.945663 -1.178017
v 15.676376 0.000000 1.178017
v 15.676376 90.945663 1.178017
v 15.676376 0.000000 -1.178017
v 15.676376 90.945663 -1.178017
v 9.722652 90.294830 0.878607
v 11.722652 90.294830 0.878607
v 12.110493 96.793243 1.178017
v 12.167454 96.793243 -1.178017
v 20.323624 0.000000 1.178017
v 20.323624 90.945663 1.178017
v 20.323624 0.000000 -1.178017
v 20.323624 90.945663 -1.178017
v 27.676376 0.000000 1.178017
v 27.676376 90.945663 1.178017
v 27.676376 0.000000 -1.178017
v 27.676376 90.945663 -1.178017
v 21.722652 90.294830 0.878607
v 23.722652 90.294830 0.878607
v 24.110493 96.793243 1.178017
v 24.167454 96.793243 -1.178017
v 32.323624 0.000000 1.178017
v 32.323624 90.945663 1.178017
v 32.323624 0.000000 -1.178017
v 32.323624 90.945663 -1.178017
v 39.676376 0.000000 1.178017
v 39.676376 90.945663 1.178017
v 39.676376 0.000000 -1.178017
v 39.676376 90.945663 -1.178017
v 33.722652 90.294830 0.878607
v 35.722652 90.294830 0.878607
v 36.110493 96.793243 1.178017
v 36.167454 96.793243 -1.178017
v -3.676376 0.000000 1.178017
v -3.676376 90.945663 1.178017
v -3.676376 0.000000 -1.178017
v -3.676376 90.945663 -1.178017
v 3.676376 0.000000 1.178017
v 3.676376 90.945663 1.178017
v 3.676376 0.000000 -1.178017
v 3.676376 90.945663 -1.178017
v -2.277351 90.294830 0.878607
v -0.277351 90.294830 0.878607
v 0.110497 96.793243 1.178017
v 0.167458 96.793243 -1.178017
v 56.323624 0.000000 1.178017
v 56.323624 90.945663 1.178017
v 56.323624 0.000000 -1.178017
v 56.323624 90.945663 -1.178017
v 63.676376 0.000000 1.178017
v 63.676376 90.945663 1.178017
v 63.676376 0.000000 -1.178017
v 63.676376 90.945663 -1.178017
v 57.722652 90.294830 0.878607
v 59.722652 90.294830 0.878607
v 60.110493 96.793243 1.178017
v 60.167454 96.793243 -1.178017
v 80.323624 0.000000 1.178017
v 80.323624 90.945663 1.178017
v 80.323624 0.000000 -1.178017
v 80.323624 90.945663 -1.178017
v 87.676376 0.000000 1.178017
v 87.676376 90.945663 1.178017
v 87.676376 0.000000 -1.178017
v 87.676376 90.945663 -1.178017
v 81.722649 90.294830 0.878607
v 83.722649 90.294830 0.878607
v 84.110497 96.793243 1.178017
v 84.167450 96.793243 -1.178017
v -15.676376 0.000000 1.178017
v -15.676376 100.203491 1.178017
v -15.676376 0.000000 -1.178017
v -15.676376 100.203491 -1.178017
v -8.323624 0.000000 1.178017
v -8.323624 100.203491 1.178017
v -8.323624 0.000000 -1.178017
v -8.323624 100.203491 -1.178017
v -14.277351 90.294830 0.878607
v -12.277351 90.294830 0.878607
v -11.889503 106.051086 1.178017
v -11.832542 106.051086 -1.178017
v -15.971527 72.937408 -1.389287
v -15.971527 78.851318 -1.389287
v -15.971527 72.937408 -3.377645
v -15.971527 78.851318 -3.377645
v 87.849129 72.937408 -1.389287
v 87.849129 78.851318 -1.389287
v 87.849129 72.937408 -3.377645
v 87.849129 78.851318 -3.377645
v -15.971527 13.545490 -1.389287
v -15.971527 19.459400 -1.389287
v -15.971527 13.545490 -3.377645
v -15.971527 19.459400 -3.377645
v 87.849129 13.545490 -1.389287
v 87.849129 19.459400 -1.389287
v 87.849129 13.545490 -3.377645
v 87.849129 19.459400 -3.377645
vn -1.0000 -0.0000 -0.0000
vn -0.0000 -0.0000 -1.0000
vn 1.0000 -0.0000 -0.0000
vn -0.0000 -0.0000 1.0000
vn -0.0000 -1.0000 -0.0000
vn 0.8556 0.5176 0.0103
vn -0.8375 0.5464 -0.0101
vn -0.0000 1.0000 -0.0000
vt 0.375000 0.000000
vt 0.625000 0.000000
vt 0.625000 0.250000
vt 0.375000 0.250000
vt 0.625000 0.380694
vt 0.625000 0.500000
vt 0.375000 0.500000
vt 0.625000 0.750000
vt 0.375000 0.750000
vt 0.625000 0.871243
vt 0.625000 1.000000
vt 0.375000 1.000000
vt 0.125000 0.500000
vt 0.125000 0.750000
vt 0.625000 0.386271
vt 0.875000 0.500000
vt 0.875000 0.750000
s 0
usemtl Material.001
f 1/1/1 2/2/1 4/3/1 3/4/1
f 3/4/2 4/3/2 12/5/2 8/6/2 7/7/2
f 7/7/3 8/6/3 6/8/3 5/9/3
f 5/9/4 6/8/4 11/10/4 2/11/4 1/12/4
f 3/13/5 7/7/5 5/9/5 1/14/5
f 8/6/6 12/5/6 11/15/6 6/8/6
f 11/15/7 12/5/7 4/3/7 2/2/7
f 13/1/1 14/2/1 16/3/1 15/4/1
f 15/4/2 16/3/2 24/5/2 20/6/2 19/7/2
f 19/7/3 20/6/3 18/8/3 17/9/3
f 17/9/4 18/8/4 23/10/4 14/11/4 13/12/4
f 15/13/5 19/7/5 17/9/5 13/14/5
f 20/6/6 24/5/6 23/15/6 18/8/6
f 23/15/7 24/5/7 16/3/7 14/2/7
f 25/1/1 26/2/1 28/3/1 27/4/1
f 27/4/2 28/3/2 36/5/2 32/6/2 31/7/2
f 31/7/3 32/6/3 30/8/3 29/9/3
f 29/9/4 30/8/4 35/10/4 26/11/4 25/12/4
f 27/13/5 31/7/5 29/9/5 25/14/5
f 32/6/6 36/5/6 35/15/6 30/8/6
f 35/15/7 36/5/7 28/3/7 26/2/7
f 37/1/1 38/2/1 40/3/1 39/4/1
f 39/4/2 40/3/2 48/5/2 44/6/2 43/7/2
f 43/7/3 44/6/3 42/8/3 41/9/3
f 41/9/4 42/8/4 47/10/4 38/11/4 37/12/4
f 39/13/5 43/7/5 41/9/5 37/14/5
f 44/6/6 48/5/6 47/15/6 42/8/6
f 47/15/7 48/5/7 40/3/7 38/2/7
f 49/1/1 50/2/1 52/3/1 51/4/1
f 51/4/2 52/3/2 60/5/2 56/6/2 55/7/2
f 55/7/3 56/6/3 54/8/3 53/9/3
f 53/9/4 54/8/4 59/10/4 50/11/4 49/12/4
f 51/13/5 55/7/5 53/9/5 49/14/5
f 56/6/6 60/5/6 59/15/6 54/8/6
f 59/15/7 60/5/7 52/3/7 50/2/7
f 61/1/1 62/2/1 64/3/1 63/4/1
f 63/4/2 64/3/2 72/5/2 68/6/2 67/7/2
f 67/7/3 68/6/3 66/8/3 65/9/3
f 65/9/4 66/8/4 71/10/4 62/11/4 61/12/4
f 63/13/5 67/7/5 65/9/5 61/14/5
f 68/6/6 72/5/6 71/15/6 66/8/6
f 71/15/7 72/5/7 64/3/7 62/2/7
f 73/1/1 74/2/1 76/3/1 75/4/1
f 75/4/2 76/3/2 84/5/2 80/6/2 79/7/2
f 79/7/3 80/6/3 78/8/3 77/9/3
f 77/9/4 78/8/4 83/10/4 74/11/4 73/12/4
f 75/13/5 79/7/5 77/9/5 73/14/5
f 80/6/6 84/5/6 83/15/6 78/8/6
f 83/15/7 84/5/7 76/3/7 74/2/7
f 85/1/1 86/2/1 88/3/1 87/4/1
f 87/4/2 88/3/2 96/5/2 92/6/2 91/7/2
f 91/7/3 92/6/3 90/8/3 89/9/3
f 89/9/4 90/8/4 95/10/4 86/11/4 85/12/4
f 87/13/5 91/7/5 89/9/5 85/14/5
f 92/6/6 96/5/6 95/15/6 90/8/6
f 95/15/7 96/5/7 88/3/7 86/2/7
f 97/1/1 98/2/1 100/3/1 99/4/1
f 99/4/2 100/3/2 108/5/2 104/6/2 103/7/2
f 103/7/3 104/6/3 102/8/3 101/9/3
f 101/9/4 102/8/4 107/10/4 98/11/4 97/12/4
f 99/13/5 103/7/5 101/9/5 97/14/5
f 104/6/6 108/5/6 107/15/6 102/8/6
f 107/15/7 108/5/7 100/3/7 98/2/7
f 109/1/1 110/2/1 112/3/1 111/4/1
f 111/4/2 112/3/2 116/6/2 115/7/2
f 115/7/3 116/6/3 114/8/3 113/9/3
f 113/9/4 114/8/4 110/11/4 109/12/4
f 111/13/5 115/7/5 113/9/5 109/14/5
f 116/6/8 112/16/8 110/17/8 114/8/8
f 117/1/1 118/2/1 120/3/1 119/4/1
f 119/4/2 120/3/2 124/6/2 123/7/2
f 123/7/3 124/6/3 122/8/3 121/9/3
f 121/9/4 122/8/4 118/11/4 117/12/4
f 119/13/5 123/7/5 121/9/5 117/14/5
f 124/6/8 120/16/8 118/17/8 122/8/8
l 10 9
l 22 21
l 34 33
l 46 45
l 58 57
l 70 69
l 82 81
l 94 93
l 106 105
